{
    "asset" : {
        "generator" : "Khronos glTF Blender I/O v1.3.48",
        "version" : "2.0"
    },
    "scene" : 0,
    "scenes" : [
        {
            "name" : "Scene",
            "nodes" : [
                0
            ]
        }
    ],
    "nodes" : [
        {
            "mesh" : 0,
            "name" : "Bibi-Reduced",
            "scale" : [
                0.0034017395228147507,
                0.0034017395228147507,
                0.0034017395228147507
            ]
        }
    ],
    "materials" : [
        {
            "doubleSided" : true,
            "emissiveFactor" : [
                0,
                0,
                0
            ],
            "name" : "Marble_Henraux_Vanilla",
            "pbrMetallicRoughness" : {
                "baseColorTexture" : {
                    "index" : 0,
                    "texCoord" : 0
                },
                "metallicFactor" : 0,
                "roughnessFactor" : 0.699999988079071
            }
        }
    ],
    "meshes" : [
        {
            "name" : "Bibi-Reduced",
            "primitives" : [
                {
                    "attributes" : {
                        "POSITION" : 0,
                        "NORMAL" : 1,
                        "TEXCOORD_0" : 2
                    },
                    "indices" : 3,
                    "material" : 0
                }
            ]
        }
    ],
    "textures" : [
        {
            "source" : 0
        }
    ],
    "images" : [
        {
            "mimeType" : "image/jpeg",
            "name" : "vanilla",
            "uri" : "vanilla.jpg"
        }
    ],
    "accessors" : [
        {
            "bufferView" : 0,
            "componentType" : 5126,
            "count" : 36216,
            "max" : [
                300.6687927246094,
                342.6710510253906,
                125.51671600341797
            ],
            "min" : [
                -251.8217010498047,
                -356.998779296875,
                -167.90988159179688
            ],
            "type" : "VEC3"
        },
        {
            "bufferView" : 1,
            "componentType" : 5126,
            "count" : 36216,
            "type" : "VEC3"
        },
        {
            "bufferView" : 2,
            "componentType" : 5126,
            "count" : 36216,
            "type" : "VEC2"
        },
        {
            "bufferView" : 3,
            "componentType" : 5123,
            "count" : 36216,
            "type" : "SCALAR"
        }
    ],
    "bufferViews" : [
        {
            "buffer" : 0,
            "byteLength" : 434592,
            "byteOffset" : 0
        },
        {
            "buffer" : 0,
            "byteLength" : 434592,
            "byteOffset" : 434592
        },
        {
            "buffer" : 0,
            "byteLength" : 289728,
            "byteOffset" : 869184
        },
        {
            "buffer" : 0,
            "byteLength" : 72432,
            "byteOffset" : 1158912
        }
    ],
    "buffers" : [
        {
            "byteLength" : 1231344,
            "uri" : "mini-bibi.bin"
        }
    ]
}
