{
    "asset" : {
        "generator" : "Khronos glTF Blender I/O v1.3.48",
        "version" : "2.0"
    },
    "scene" : 0,
    "scenes" : [
        {
            "name" : "Scene",
            "nodes" : [
                0
            ]
        }
    ],
    "nodes" : [
        {
            "mesh" : 0,
            "name" : "Bibush",
            "rotation" : [
                0.7071068286895752,
                0,
                0,
                0.7071067094802856
            ],
            "scale" : [
                0.4574688673019409,
                0.4574688673019409,
                0.4574688673019409
            ],
            "translation" : [
                -0.5149504542350769,
                0,
                0
            ]
        }
    ],
    "materials" : [
        {
            "doubleSided" : true,
            "emissiveFactor" : [
                0,
                0,
                0
            ],
            "name" : "Marble_Henraux_Vanilla",
            "pbrMetallicRoughness" : {
                "baseColorTexture" : {
                    "index" : 0,
                    "texCoord" : 0
                },
                "metallicFactor" : 0,
                "roughnessFactor" : 0.699999988079071
            }
        }
    ],
    "meshes" : [
        {
            "name" : "Bibush",
            "primitives" : [
                {
                    "attributes" : {
                        "POSITION" : 0,
                        "NORMAL" : 1,
                        "TEXCOORD_0" : 2
                    },
                    "indices" : 3,
                    "material" : 0
                }
            ]
        }
    ],
    "textures" : [
        {
            "source" : 0
        }
    ],
    "images" : [
        {
            "mimeType" : "image/png",
            "name" : "bibitex2",
            "uri" : "bibitex2.png"
        }
    ],
    "accessors" : [
        {
            "bufferView" : 0,
            "componentType" : 5126,
            "count" : 48713,
            "max" : [
                5.630569934844971,
                1.8467899560928345,
                5.565070152282715
            ],
            "min" : [
                -3.2086799144744873,
                -2.8457999229431152,
                -5.537670135498047
            ],
            "type" : "VEC3"
        },
        {
            "bufferView" : 1,
            "componentType" : 5126,
            "count" : 48713,
            "type" : "VEC3"
        },
        {
            "bufferView" : 2,
            "componentType" : 5126,
            "count" : 48713,
            "type" : "VEC2"
        },
        {
            "bufferView" : 3,
            "componentType" : 5123,
            "count" : 73305,
            "type" : "SCALAR"
        }
    ],
    "bufferViews" : [
        {
            "buffer" : 0,
            "byteLength" : 584556,
            "byteOffset" : 0
        },
        {
            "buffer" : 0,
            "byteLength" : 584556,
            "byteOffset" : 584556
        },
        {
            "buffer" : 0,
            "byteLength" : 389704,
            "byteOffset" : 1169112
        },
        {
            "buffer" : 0,
            "byteLength" : 146610,
            "byteOffset" : 1558816
        }
    ],
    "buffers" : [
        {
            "byteLength" : 1705428,
            "uri" : "bibi-low.bin"
        }
    ]
}
